<?xml version="1.0" encoding="UTF-8"?> <svg xmlns="http://www.w3.org/2000/svg" xmlns:xlink="http://www.w3.org/1999/xlink" version="1.1" width="512" height="512" x="0" y="0" viewBox="0 0 512 512" style="enable-background:new 0 0 512 512" xml:space="preserve" class=""><g><path d="M287.996 28.095h0a45.637 45.637 0 0 0 38.753 12.592h0C351.378 37 374.416 53.738 378.52 78.301v0a45.64 45.64 0 0 0 23.951 32.966h0c22.093 11.493 30.892 38.576 19.775 60.86h0a45.64 45.64 0 0 0 0 40.748h0c11.118 22.284 2.318 49.367-19.775 60.86h0a45.64 45.64 0 0 0-23.951 32.966v0c-4.104 24.563-27.142 41.301-51.771 37.614h0a45.634 45.634 0 0 0-38.753 12.592h0c-17.758 17.46-46.234 17.46-63.992 0h0a45.64 45.64 0 0 0-38.753-12.592h0c-24.629 3.687-47.667-13.051-51.771-37.614h0a45.64 45.64 0 0 0-23.951-32.966h0c-22.093-11.493-30.892-38.576-19.775-60.86h0a45.64 45.64 0 0 0 0-40.748h0c-11.118-22.284-2.318-49.367 19.775-60.86h0a45.64 45.64 0 0 0 23.951-32.966h0c4.104-24.563 27.142-41.301 51.771-37.614h0a45.633 45.633 0 0 0 38.753-12.592h0c17.758-17.46 46.234-17.46 63.992 0z" style="stroke-width:30;stroke-linecap:round;stroke-linejoin:round;stroke-miterlimit:10;" fill="none" stroke="#459443" stroke-width="30" stroke-linecap="round" stroke-linejoin="round" stroke-miterlimit="10" data-original="#000000" opacity="1" class=""></path><path d="m223.967 194.434 22.816 22.816 39.05-39.05" style="stroke-width:30;stroke-linecap:round;stroke-linejoin:round;stroke-miterlimit:10;" fill="none" stroke="#459443" stroke-width="30" stroke-linecap="round" stroke-linejoin="round" stroke-miterlimit="10" data-original="#000000" opacity="1" class=""></path><circle cx="256" cy="192.5" r="99" style="stroke-width:30;stroke-linecap:round;stroke-linejoin:round;stroke-miterlimit:10;" fill="none" stroke="#459443" stroke-width="30" stroke-linecap="round" stroke-linejoin="round" stroke-miterlimit="10" data-original="#000000" opacity="1" class=""></circle><path d="M149.49 334.41 95.58 450.12l75.65-30.95L196.2 497l59.18-127.01M362.51 334.41l53.91 115.71-75.65-30.95L315.8 497l-59.18-127.01" style="stroke-width:30;stroke-linecap:round;stroke-linejoin:round;stroke-miterlimit:10;" fill="none" stroke="#459443" stroke-width="30" stroke-linecap="round" stroke-linejoin="round" stroke-miterlimit="10" data-original="#000000" opacity="1" class=""></path></g></svg> 