<?xml version="1.0" encoding="UTF-8"?> <svg xmlns="http://www.w3.org/2000/svg" xmlns:xlink="http://www.w3.org/1999/xlink" version="1.1" width="512" height="512" x="0" y="0" viewBox="0 0 512 512" style="enable-background:new 0 0 512 512" xml:space="preserve" class=""><g><path d="M139.57 264.571h0c49.097 0 88.899-39.801 88.899-88.898v-20.132c0-49.097-39.801-88.898-88.898-88.898h0c-49.097 0-88.898 39.801-88.898 88.898v20.132c-.001 49.097 39.8 88.898 88.897 88.898z" style="stroke-width:40;stroke-linecap:round;stroke-linejoin:round;stroke-miterlimit:10;" fill="none" stroke="#459443" stroke-width="40" stroke-linecap="round" stroke-linejoin="round" stroke-miterlimit="10" data-original="#000000" class="" opacity="1"></path><path d="M259.141 445.358V330.056c0-36.166-29.121-65.485-65.043-65.485H85.043C49.121 264.571 20 293.89 20 330.056v115.301h239.141zM139.571 274.904v82.145M440.633 286.362A94.692 94.692 0 0 0 492 202.004a94.692 94.692 0 0 0-51.124-84.234v46.174l-42.862 30.083-42.862-30.083V117.77a94.692 94.692 0 0 0-51.124 84.234 94.69 94.69 0 0 0 51.645 84.501v116.224c0 23.543 18.957 42.629 42.341 42.629h0c23.384 0 42.341-19.085 42.341-42.629v-16.367" style="stroke-width:40;stroke-linecap:round;stroke-linejoin:round;stroke-miterlimit:10;" fill="none" stroke="#459443" stroke-width="40" stroke-linecap="round" stroke-linejoin="round" stroke-miterlimit="10" data-original="#000000" class="" opacity="1"></path></g></svg> 