<?xml version="1.0" encoding="UTF-8"?> <svg xmlns="http://www.w3.org/2000/svg" xmlns:xlink="http://www.w3.org/1999/xlink" version="1.1" width="512" height="512" x="0" y="0" viewBox="0 0 512 512" style="enable-background:new 0 0 512 512" xml:space="preserve" class=""><g><path d="M302.569 376.768 335.553 392l87.466-40.39c26.953-12.447 44.212-39.427 44.212-69.115V63.645h-31.513a115.492 115.492 0 0 1-93.981-48.366l-.198-.279h-11.971l-.199.279a115.492 115.492 0 0 1-93.981 48.366h-31.513V250" style="stroke-width:30;stroke-miterlimit:10;" fill="none" stroke="#459443" stroke-width="30" stroke-miterlimit="10" data-original="#000000" opacity="1" class=""></path><path d="M288.171 149.068 320.102 181l62.834-62.833M285.04 263h101.026M112.725 348.757l40.043-45.155V238h14.851c28.249 0 51.149 22.9 51.149 51.149V333h43.742c24.533 0 43.275 21.898 39.488 46.137l-13.135 84.067C285.823 482.658 269.066 497 249.375 497H111.768M44.768 349h67v148h-67z" style="stroke-width:30;stroke-miterlimit:10;" fill="none" stroke="#459443" stroke-width="30" stroke-miterlimit="10" data-original="#000000" opacity="1" class=""></path></g></svg> 